<svg width="131" height="26" viewBox="0 0 131 26" fill="none" xmlns="http://www.w3.org/2000/svg">
<path d="M0.862883 12.848C0.862883 11.0453 1.25288 9.442 2.03288 8.038C2.81288 6.61667 3.89622 5.516 5.28288 4.736C6.68688 3.93867 8.27288 3.54 10.0409 3.54C12.2076 3.54 14.0622 4.112 15.6049 5.256C17.1475 6.4 18.1789 7.96 18.6989 9.936H13.8109C13.4469 9.17333 12.9269 8.59267 12.2509 8.194C11.5922 7.79533 10.8382 7.596 9.98888 7.596C8.61955 7.596 7.51022 8.07267 6.66088 9.026C5.81155 9.97933 5.38688 11.2533 5.38688 12.848C5.38688 14.4427 5.81155 15.7167 6.66088 16.67C7.51022 17.6233 8.61955 18.1 9.98888 18.1C10.8382 18.1 11.5922 17.9007 12.2509 17.502C12.9269 17.1033 13.4469 16.5227 13.8109 15.76H18.6989C18.1789 17.736 17.1475 19.296 15.6049 20.44C14.0622 21.5667 12.2076 22.13 10.0409 22.13C8.27288 22.13 6.68688 21.74 5.28288 20.96C3.89622 20.1627 2.81288 19.062 2.03288 17.658C1.25288 16.254 0.862883 14.6507 0.862883 12.848ZM25.8676 2.76V22H21.4216V2.76H25.8676ZM35.6935 22.208C34.2722 22.208 32.9895 21.9047 31.8455 21.298C30.7189 20.6913 29.8262 19.8247 29.1675 18.698C28.5262 17.5713 28.2055 16.254 28.2055 14.746C28.2055 13.2553 28.5349 11.9467 29.1935 10.82C29.8522 9.676 30.7535 8.80067 31.8975 8.194C33.0415 7.58733 34.3242 7.284 35.7455 7.284C37.1669 7.284 38.4495 7.58733 39.5935 8.194C40.7375 8.80067 41.6389 9.676 42.2975 10.82C42.9562 11.9467 43.2855 13.2553 43.2855 14.746C43.2855 16.2367 42.9475 17.554 42.2715 18.698C41.6129 19.8247 40.7029 20.6913 39.5415 21.298C38.3975 21.9047 37.1149 22.208 35.6935 22.208ZM35.6935 18.36C36.5429 18.36 37.2622 18.048 37.8515 17.424C38.4582 16.8 38.7615 15.9073 38.7615 14.746C38.7615 13.5847 38.4669 12.692 37.8775 12.068C37.3055 11.444 36.5949 11.132 35.7455 11.132C34.8789 11.132 34.1595 11.444 33.5875 12.068C33.0155 12.6747 32.7295 13.5673 32.7295 14.746C32.7295 15.9073 33.0069 16.8 33.5615 17.424C34.1335 18.048 34.8442 18.36 35.6935 18.36ZM53.7302 18.23V22H51.4682C49.8562 22 48.5996 21.61 47.6982 20.83C46.7969 20.0327 46.3462 18.7413 46.3462 16.956V11.184H44.5782V7.492H46.3462V3.956H50.7922V7.492H53.7042V11.184H50.7922V17.008C50.7922 17.4413 50.8962 17.7533 51.1042 17.944C51.3122 18.1347 51.6589 18.23 52.1442 18.23H53.7302ZM65.1247 7.336C66.7887 7.336 68.1234 7.89067 69.1287 9C70.1341 10.092 70.6367 11.6 70.6367 13.524V22H66.2167V14.122C66.2167 13.1513 65.9654 12.3973 65.4627 11.86C64.9601 11.3227 64.2841 11.054 63.4347 11.054C62.5854 11.054 61.9094 11.3227 61.4067 11.86C60.9041 12.3973 60.6527 13.1513 60.6527 14.122V22H56.2067V2.76H60.6527V9.442C61.1034 8.80067 61.7187 8.28933 62.4987 7.908C63.2787 7.52667 64.1541 7.336 65.1247 7.336ZM83.1196 19.426H91.5176V22H79.6096V19.686L87.9816 6.504H79.6096V3.93H91.5176V6.244L83.1196 19.426ZM96.2656 5.776C95.7283 5.776 95.2776 5.594 94.9136 5.23C94.5496 4.866 94.3676 4.41533 94.3676 3.878C94.3676 3.34067 94.5496 2.89 94.9136 2.526C95.2776 2.162 95.7283 1.98 96.2656 1.98C96.7856 1.98 97.2276 2.162 97.5916 2.526C97.9556 2.89 98.1376 3.34067 98.1376 3.878C98.1376 4.41533 97.9556 4.866 97.5916 5.23C97.2276 5.594 96.7856 5.776 96.2656 5.776ZM97.7216 7.674V22H94.7576V7.674H97.7216ZM104.577 2.76V22H101.613V2.76H104.577ZM111.433 2.76V22H108.469V2.76H111.433ZM114.336 14.772C114.336 13.3333 114.631 12.0593 115.22 10.95C115.827 9.84067 116.641 8.98267 117.664 8.376C118.704 7.752 119.848 7.44 121.096 7.44C122.223 7.44 123.202 7.66533 124.034 8.116C124.883 8.54933 125.559 9.09533 126.062 9.754V7.674H129.052V22H126.062V19.868C125.559 20.544 124.875 21.1073 124.008 21.558C123.141 22.0087 122.153 22.234 121.044 22.234C119.813 22.234 118.687 21.922 117.664 21.298C116.641 20.6567 115.827 19.7727 115.22 18.646C114.631 17.502 114.336 16.2107 114.336 14.772ZM126.062 14.824C126.062 13.836 125.854 12.978 125.438 12.25C125.039 11.522 124.511 10.9673 123.852 10.586C123.193 10.2047 122.483 10.014 121.72 10.014C120.957 10.014 120.247 10.2047 119.588 10.586C118.929 10.95 118.392 11.496 117.976 12.224C117.577 12.9347 117.378 13.784 117.378 14.772C117.378 15.76 117.577 16.6267 117.976 17.372C118.392 18.1173 118.929 18.6893 119.588 19.088C120.264 19.4693 120.975 19.66 121.72 19.66C122.483 19.66 123.193 19.4693 123.852 19.088C124.511 18.7067 125.039 18.152 125.438 17.424C125.854 16.6787 126.062 15.812 126.062 14.824Z" fill="#333333"/>
</svg>
